HIERARCHY
ROOT Hips
{
 OFFSET 0.000000 0.000000 0.000000
 CHANNELS 6 Xposition Yposition Zposition Yrotation Xrotation Zrotation
 JOINT Chest
 {
  OFFSET 0.000000 9.581000 -0.001100
  CHANNELS 3 Yrotation Xrotation Zrotation
  JOINT Chest2
  {
   OFFSET 0.000000 9.561100 0.002200
   CHANNELS 3 Yrotation Xrotation Zrotation
   JOINT Chest3
   {
    OFFSET 0.000000 9.521100 0.000000
    CHANNELS 3 Yrotation Xrotation Zrotation
    JOINT Chest4
    {
     OFFSET 0.000000 9.511400 0.000000
     CHANNELS 3 Yrotation Xrotation Zrotation
     JOINT Neck
     {
      OFFSET 0.000000 14.375100 0.000000
      CHANNELS 3 Yrotation Xrotation Zrotation
      JOINT Head
      {
       OFFSET 0.000000 8.901200 0.004600
       CHANNELS 3 Yrotation Xrotation Zrotation
       End Site
       {
        OFFSET 0.000000 16.962200 0.002400
       }
      }
     }
     JOINT RightCollar
     {
      OFFSET -2.920100 9.518800 0.000000
      CHANNELS 3 Yrotation Xrotation Zrotation
      JOINT RightShoulder
      {
       OFFSET -13.664500 0.000000 0.000000
       CHANNELS 3 Yrotation Xrotation Zrotation
       JOINT RightElbow
       {
        OFFSET 0.000000 -29.999200 0.000000
        CHANNELS 3 Yrotation Xrotation Zrotation
        JOINT RightWrist
        {
         OFFSET 0.000000 -24.253600 0.000000
         CHANNELS 3 Yrotation Xrotation Zrotation
         End Site
         {
          OFFSET 0.000000 -17.918900 0.000000
         }
        }
       }
      }
     }
     JOINT LeftCollar
     {
      OFFSET 2.920100 9.518800 0.000000
      CHANNELS 3 Yrotation Xrotation Zrotation
      JOINT LeftShoulder
      {
       OFFSET 13.664500 0.000000 0.000000
       CHANNELS 3 Yrotation Xrotation Zrotation
       JOINT LeftElbow
       {
        OFFSET 0.000000 -29.999200 0.000000
        CHANNELS 3 Yrotation Xrotation Zrotation
        JOINT LeftWrist
        {
         OFFSET 0.000000 -24.253600 0.000000
         CHANNELS 3 Yrotation Xrotation Zrotation
         End Site
         {
          OFFSET 0.000000 -17.918900 0.000000
         }
        }
       }
      }
     }
    }
   }
  }
 }
 JOINT RightHip
 {
  OFFSET -7.797300 0.005300 0.000500
  CHANNELS 3 Yrotation Xrotation Zrotation
  JOINT RightKnee
  {
   OFFSET 0.000000 -40.663400 -0.000500
   CHANNELS 3 Yrotation Xrotation Zrotation
   JOINT RightAnkle
   {
    OFFSET 0.000000 -39.523700 -0.000900
    CHANNELS 3 Yrotation Xrotation Zrotation
    JOINT RightToe
    {
     OFFSET 0.000000 -6.418000 14.485300
     CHANNELS 3 Yrotation Xrotation Zrotation
     End Site
     {
      OFFSET 0.000000 -1.465200 6.326400
     }
    }
   }
  }
 }
 JOINT LeftHip
 {
  OFFSET 7.797300 0.005300 0.000500
  CHANNELS 3 Yrotation Xrotation Zrotation
  JOINT LeftKnee
  {
   OFFSET 0.000000 -40.663400 -0.000500
   CHANNELS 3 Yrotation Xrotation Zrotation
   JOINT LeftAnkle
   {
    OFFSET 0.000000 -39.523700 -0.000900
    CHANNELS 3 Yrotation Xrotation Zrotation
    JOINT LeftToe
    {
     OFFSET 0.000000 -6.418000 14.485300
     CHANNELS 3 Yrotation Xrotation Zrotation
     End Site
     {
      OFFSET 0.000000 -1.465200 6.326400
     }
    }
   }
  }
 }
}
MOTION
Frames: 13
Frame Time: 0.008333
0.000000 86.422400 0.000000 0.000000 -5.767877 0.000000 0.000000 11.653817 0.000000 0.000000 -5.885947 0.000000 0.000000 -0.000000 0.000000 0.000000 -0.000000 0.000000 0.000000 12.528835 0.000000 0.000000 0.711642 0.000000 0.000000 -0.000000 0.000000 0.000000 0.000000 -90.000000 0.000000 -2.309062 0.000000 0.000000 2.309062 0.000000 0.000000 -0.000000 0.000000 0.000000 -0.000000 90.000000 0.000000 -2.309062 0.000000 0.000000 2.309062 0.000000 0.000000 8.520406 0.000000 0.000000 1.905762 0.000000 -0.000000 -4.658285 0.000000 0.000000 -0.000000 0.000000 0.000000 8.520406 0.000000 0.000000 1.905762 0.000000 -0.000000 -4.658285 0.000000 0.000000 -0.000000 0.000000
-9.453610 126.358691 2.915119 169.488863 -26.975760 -2.705140 1.544309 20.566924 1.140195 0.185834 2.612632 0.130314 0.282226 4.309877 0.188690 1.299483 17.608871 0.953500 1.810661 11.773331 -4.075291 2.889771 -13.265433 -4.791443 -2.220280 -3.135674 1.267365 15.742249 -16.595062 -10.766485 -128.444327 -65.154159 162.618613 -4.121035 -13.546466 -46.180262 -8.541189 -3.250669 1.112211 -15.154681 -21.729763 10.235296 128.940851 -73.783552 -150.617877 -19.310332 -28.471246 54.409589 -2.406230 -55.656701 6.555007 -121.678073 84.573911 -123.759716 11.096460 -25.200356 2.121474 0.001159 -0.003123 0.000513 -4.758714 -48.506187 -2.785212 54.242433 82.831708 47.996502 1.887939 -10.094673 4.355146 0.002264 0.003938 0.001003
-9.453524 126.358863 2.917198 169.493167 -26.979886 -2.701157 1.562145 20.540622 1.168266 0.171349 2.629223 0.115656 0.275192 4.318356 0.181920 1.306861 17.597682 0.963283 1.800332 11.795495 -4.077710 2.878815 -13.242419 -4.790962 -2.175397 -3.131147 1.316721 15.688118 -16.840067 -10.725409 -128.726429 -65.191028 162.889984 -4.135898 -13.339127 -46.244132 -8.499817 -3.274809 1.058626 -15.120987 -21.959960 10.239479 128.605524 -73.725340 -150.415639 -19.513108 -28.439184 55.179499 -2.402290 -55.654046 6.545477 -121.745290 84.578791 -123.825579 11.085441 -25.202285 2.121023 0.000845 -0.001387 0.000375 -4.762447 -48.503171 -2.790701 54.267025 82.821777 48.016253 1.885219 -10.087261 4.352849 0.000809 0.004700 0.000358
-9.454513 126.359667 2.917901 169.503225 -26.993538 -2.691657 1.567599 20.535066 1.174646 0.155712 2.644365 0.104942 0.285043 4.304045 0.193304 1.293414 17.611690 0.953847 1.797060 11.802751 -4.078534 2.875371 -13.234888 -4.790913 -2.130231 -3.142701 1.357576 15.699148 -17.076058 -10.684651 -129.035454 -65.244130 163.138357 -4.137193 -13.140372 -46.346764 -8.498689 -3.277366 1.047433 -15.138798 -22.201579 10.252618 128.387540 -73.689232 -150.258499 -19.721586 -28.390018 56.057729 -2.395788 -55.643241 6.530433 -121.768724 84.573908 -123.850672 11.057826 -25.206580 2.122251 -0.001467 -0.001823 -0.000650 -4.762303 -48.490901 -2.808111 54.281674 82.812473 48.022501 1.883427 -10.079297 4.354431 -0.000534 0.004335 -0.000237
-9.456064 126.360942 2.917684 169.513597 -27.013421 -2.678624 1.567903 20.542425 1.168499 0.158091 2.641749 0.110870 0.285208 4.303676 0.193825 1.294356 17.610698 0.955657 1.783017 11.826629 -4.076496 2.859371 -13.210177 -4.784411 -2.098761 -3.150691 1.391666 15.759092 -17.294798 -10.649644 -129.280928 -65.298857 163.298589 -4.134172 -12.975148 -46.483244 -8.516038 -3.296274 1.005978 -15.277287 -22.380310 10.313556 128.317893 -73.675142 -150.166902 -19.938121 -28.336499 57.030170 -2.381939 -55.626105 6.502707 -121.806326 84.574578 -123.894672 11.060246 -25.209743 2.122406 -0.001715 -0.001456 -0.000760 -4.752018 -48.471629 -2.835365 54.289173 82.803286 48.026552 1.878261 -10.072064 4.355201 -0.000280 0.003181 -0.000124
-9.455647 126.361149 2.920220 169.514575 -27.017974 -2.677329 1.578594 20.535652 1.176381 0.163890 2.640270 0.110358 0.288227 4.303351 0.194417 1.307435 17.609539 0.959442 1.781745 11.856751 -4.059756 2.823781 -13.166005 -4.757712 -2.073835 -3.168067 1.436036 15.857079 -17.494620 -10.618121 -129.362186 -65.335573 163.290503 -4.133721 -12.848531 -46.637028 -8.598668 -3.374814 0.946142 -15.471733 -22.466116 10.413595 128.365596 -73.680678 -150.117023 -20.161909 -28.289693 58.073035 -2.385116 -55.624693 6.505620 -121.875602 84.578373 -123.971113 11.068329 -25.212725 2.121774 -0.000027 -0.001105 -0.000012 -4.753389 -48.467888 -2.835565 54.281276 82.798277 48.017384 1.877211 -10.066385 4.353274 -0.000375 0.004176 -0.000166
-9.455379 126.361742 2.921804 169.511658 -27.027471 -2.674235 1.591391 20.536766 1.183560 0.165919 2.635718 0.111391 0.291036 4.302598 0.195062 1.344032 17.603339 0.971527 1.745185 11.885226 -4.051337 2.810715 -13.149723 -4.745361 -2.055750 -3.181271 1.476890 15.982488 -17.680299 -10.591042 -129.231003 -65.343367 163.075915 -4.134818 -12.751951 -46.793379 -8.667932 -3.381886 0.928956 -15.762430 -22.607872 10.497350 128.479179 -73.697878 -150.076890 -20.400111 -28.249535 59.165603 -2.384484 -55.618338 6.509721 -121.882521 84.575133 -123.982644 11.074019 -25.213636 2.121543 0.002240 -0.000454 0.000992 -4.749552 -48.463551 -2.835947 54.278656 82.798372 48.011997 1.880064 -10.055896 4.352970 -0.000837 0.001410 -0.000371
-9.456322 126.362237 2.923154 169.508361 -27.034967 -2.665595 1.602086 20.540427 1.183938 0.178542 2.630249 0.117274 0.282300 4.304769 0.191446 1.351833 17.611455 0.975662 1.735922 11.894377 -4.043039 2.798413 -13.140454 -4.733467 -1.995514 -3.214133 1.519164 16.130121 -17.854165 -10.566898 -128.927346 -65.328099 162.690923 -4.137402 -12.677311 -46.936796 -8.711287 -3.409932 0.916069 -16.101515 -22.733868 10.588013 128.632083 -73.717206 -150.038801 -20.654551 -28.205951 60.278141 -2.374032 -55.613687 6.505853 -121.857611 84.568938 -123.961336 11.053672 -25.218756 2.127443 -0.000365 -0.000313 -0.000162 -4.739408 -48.458786 -2.842811 54.243609 82.799099 47.970921 1.881612 -10.047733 4.355693 -0.001741 -0.000596 -0.000771
-9.456169 126.362960 2.924284 169.509008 -27.043119 -2.666861 1.611883 20.548381 1.192342 0.179653 2.631343 0.117878 0.294375 4.305959 0.196188 1.348455 17.614455 0.977159 1.721479 11.893972 -4.040464 2.792407 -13.135064 -4.718375 -1.920843 -3.252992 1.560814 16.297154 -18.011964 -10.541769 -128.552590 -65.302038 162.218760 -4.144041 -12.617037 -47.047341 -8.784165 -3.467968 0.891884 -16.432041 -22.820876 10.683379 128.818628 -73.734277 -150.018833 -20.911865 -28.154997 61.374461 -2.369965 -55.606420 6.509265 -121.843387 84.566880 -123.950205 11.061476 -25.224825 2.127089 0.003576 -0.001097 0.001585 -4.738492 -48.450696 -2.835721 54.172342 82.800926 47.894489 1.880426 -10.040688 4.361488 -0.001495 -0.001557 -0.000662
-9.457049 126.363255 2.925889 169.507288 -27.044847 -2.663194 1.617042 20.550636 1.192785 0.184395 2.633470 0.121356 0.288009 4.304289 0.192464 1.365284 17.620932 0.986621 1.707712 11.890563 -4.039950 2.786914 -13.139008 -4.703100 -1.836453 -3.297400 1.598976 16.482082 -18.148154 -10.515145 -128.207406 -65.270419 161.747153 -4.149945 -12.558674 -47.121514 -8.862965 -3.525412 0.869146 -16.745588 -22.902995 10.770317 129.035303 -73.747171 -150.035611 -21.156970 -28.098037 62.424004 -2.357194 -55.608179 6.506471 -121.837101 84.559227 -123.939072 11.032872 -25.228053 2.125566 0.002462 -0.002154 0.001091 -4.733823 -48.449215 -2.838779 54.136566 82.798521 47.856440 1.881056 -10.036659 4.360534 -0.002136 -0.001833 -0.000946
-9.457986 126.363807 2.927000 169.507566 -27.048081 -2.661119 1.620636 20.554168 1.193865 0.189283 2.637322 0.126851 0.289297 4.303644 0.190306 1.374975 17.628274 0.997475 1.707524 11.883760 -4.025546 2.769341 -13.146575 -4.706650 -1.750570 -3.347632 1.629644 16.679027 -18.264560 -10.486759 -127.952567 -65.238491 161.337144 -4.152498 -12.494928 -47.166985 -8.943479 -3.583561 0.844243 -17.029233 -22.982347 10.851849 129.255939 -73.752766 -150.074855 -21.375665 -28.036889 63.389550 -2.345755 -55.605901 6.501092 -121.830925 84.560324 -123.927437 10.989901 -25.228658 2.129805 -0.003933 -0.001577 -0.001743 -4.733525 -48.446039 -2.834098 54.076279 82.799967 47.790756 1.877967 -10.026190 4.363115 0.000335 -0.001154 0.000148
-9.458418 126.364539 2.927898 169.502651 -27.052548 -2.660966 1.642939 20.565317 1.215766 0.180908 2.633952 0.119205 0.291394 4.307232 0.194267 1.384168 17.634631 1.005849 1.701869 11.867740 -4.014450 2.756431 -13.145207 -4.720389 -1.667800 -3.401672 1.653456 16.877827 -18.365426 -10.456986 -127.821156 -65.211042 161.027916 -4.156469 -12.428756 -47.186971 -9.021001 -3.634175 0.819744 -17.274533 -23.069622 10.930053 129.444228 -73.750522 -150.108395 -21.555906 -27.978688 64.237396 -2.332386 -55.601558 6.488774 -121.858857 84.573182 -123.953344 11.030518 -25.229980 2.121642 0.003275 -0.000677 0.001451 -4.736104 -48.438429 -2.824578 53.971529 82.799437 47.682528 1.880405 -10.017605 4.362753 0.002169 0.000443 0.000961
-9.459256 126.365066 2.929183 169.506240 -27.053016 -2.664328 1.646963 20.570128 1.223650 0.177733 2.630947 0.117396 0.302397 4.314408 0.202155 1.378066 17.633646 1.005562 1.697347 11.858295 -4.010672 2.750507 -13.163903 -4.703005 -1.582847 -3.449681 1.677613 17.069258 -18.452651 -10.426767 -127.824044 -65.189355 160.840523 -4.160311 -12.366911 -47.187867 -9.087655 -3.676963 0.793138 -17.470486 -23.153422 11.010408 129.559804 -73.738166 -150.104918 -21.694067 -27.927514 64.945854 -2.325629 -55.600746 6.479062 -121.721307 84.571321 -123.815800 11.060191 -25.224764 2.125697 0.003677 0.000484 0.001629 -4.736784 -48.435191 -2.821077 53.868451 82.793925 47.574441 1.880519 -10.005845 4.369830 0.000093 0.000830 0.000041
